<svg width="688.807129" height="461.818848" viewBox="0 0 688.807 461.819" fill="none" xmlns="http://www.w3.org/2000/svg" xmlns:xlink="http://www.w3.org/1999/xlink">
	<desc>
			Created with Pixso.
	</desc>
	<defs>
		<linearGradient x1="157.851593" y1="54.978516" x2="580.156128" y2="340.866455" id="paint_linear_144_1259_0" gradientUnits="userSpaceOnUse">
			<stop stop-color="#FFFFFF" stop-opacity="0.101961"/>
			<stop offset="1.000000" stop-color="#FFFFFF" stop-opacity="0.000000"/>
		</linearGradient>
	</defs>
	<path id="Vector 4" d="M161.84 195.75C260.67 129 327.44 61.1 371.46 0L688.8 0.02C669.34 111.65 636.71 227.63 586.22 275.86C515.44 343.49 409.68 390.57 350.03 461.81L21.5 461.81L0 442.18L0 329.57C42.2 286.05 95.37 240.64 161.84 195.75Z" fill="url(#paint_linear_144_1259_0)" fill-opacity="0.430000" fill-rule="evenodd"/>
	<path id="Vector 4" d="M371.46 0L688.8 0.02C669.34 111.65 636.71 227.63 586.22 275.86C515.44 343.49 409.68 390.57 350.03 461.81L21.5 461.81L0 442.18L0 329.57C42.2 286.05 95.37 240.64 161.84 195.75C260.67 129 327.44 61.1 371.46 0Z" stroke="#000000" stroke-opacity="0" stroke-width="5.598214"/>
</svg>
