<svg width="156.000000" height="21.192017" viewBox="0 0 156 21.192" fill="none" xmlns="http://www.w3.org/2000/svg" xmlns:xlink="http://www.w3.org/1999/xlink">
	<desc>
			Created with Pixso.
	</desc>
	<defs/>
	<path id="Vector" d="M8.16 18.04C3.33 18.04 0 14.42 0 9.5C0 4.58 3.33 0.95 8.16 0.95L38.11 0.95C42.93 0.95 46.27 4.58 46.27 9.5C46.27 14.42 42.93 18.04 38.11 18.04L8.16 18.04ZM38.11 3.38L8.16 3.38C4.96 3.38 2.83 5.95 2.83 9.5C2.83 13.05 4.96 15.62 8.16 15.62L38.11 15.62C41.3 15.62 43.43 13.05 43.43 9.5C43.43 5.95 41.3 3.38 38.11 3.38Z" fill="#422F83" fill-opacity="1.000000" fill-rule="evenodd"/>
	<path id="цифрон" d="M95.81 16.68C101.83 16.29 105.41 13.29 105.41 8.56C105.41 4.96 102.86 2.66 98.37 2.11L98.76 -4.01e-5L95.28 -4.01e-5L94.92 2.03C88.92 2.42 85.32 5.39 85.32 10.15C85.32 13.75 87.89 16.08 92.35 16.6L91.97 18.71L95.45 18.71L95.81 16.68ZM121.79 10.65C121.79 14.83 124.69 17.9 129.13 17.9C134.67 17.9 138.44 13.58 138.44 8.06C138.44 3.88 135.51 0.81 131.07 0.81C125.55 0.81 121.79 5.13 121.79 10.65ZM66.82 0.95L63.22 0.95L60.77 14.66L54.48 14.66L56.93 0.95L53.33 0.95L50.33 17.76L62.43 17.76L61.8 21.19L65.26 21.19L66.44 14.66L64.35 14.66L66.82 0.95ZM67.72 17.76L71.01 17.76L80.03 6.88L78.09 17.76L81.62 17.76L84.62 0.95L81.35 0.95L72.31 11.83L74.27 0.95L70.72 0.95L67.72 17.76ZM109.07 0.95L106.09 17.76L109.69 17.76L110.7 12.12L113.96 12.12C118.02 12.12 120.95 9.91 120.95 5.9C120.95 3.11 118.83 0.95 115.23 0.95L109.07 0.95ZM142.04 0.95L139.07 17.76L142.67 17.76L143.91 10.82L150.44 10.82L149.19 17.76L152.79 17.76L155.77 0.95L152.17 0.95L150.97 7.7L144.44 7.7L145.64 0.95L142.04 0.95ZM134.82 8.15C134.82 11.68 132.73 14.88 129.32 14.88C126.87 14.88 125.41 13 125.41 10.53C125.41 7.03 127.47 3.83 130.91 3.83C133.35 3.83 134.82 5.71 134.82 8.15ZM112.11 3.95L114.87 3.95C116.39 3.95 117.3 4.72 117.3 6.19C117.3 8.08 115.98 9.11 114.01 9.11L111.23 9.11L112.11 3.95ZM92.85 13.75C90.21 13.36 88.89 12.04 88.89 9.81C88.89 6.98 90.84 5.25 94.41 4.89L92.85 13.75ZM96.31 13.82L97.87 4.96C100.51 5.35 101.83 6.67 101.83 8.9C101.83 11.73 99.89 13.44 96.31 13.82Z" fill="#422F83" fill-opacity="1.000000" fill-rule="evenodd"/>
</svg>
