<svg width="22" height="22" viewBox="0 0 22 22" fill="none" xmlns="http://www.w3.org/2000/svg">
<path d="M10.6508 13.7607L13.5763 15.9746C13.7871 16.1152 13.998 16.1197 14.2088 15.9883C14.4197 15.8569 14.4812 15.6678 14.3933 15.4211L13.2864 11.7577L16.1592 9.70192C16.37 9.54378 16.4315 9.34594 16.3436 9.10838C16.2558 8.87083 16.0889 8.7524 15.8429 8.75311H12.3376L11.1515 4.90516C11.0637 4.65917 10.8968 4.53618 10.6508 4.53618C10.4048 4.53618 10.2379 4.65917 10.15 4.90516L8.96402 8.75311H5.45869C5.2127 8.75311 5.04578 8.87188 4.95793 9.10944C4.87008 9.34699 4.93158 9.54448 5.14242 9.70192L8.01521 11.7577L6.90826 15.4211C6.82041 15.6671 6.88191 15.8562 7.09275 15.9883C7.3036 16.1204 7.51445 16.1159 7.72529 15.9746L10.6508 13.7607ZM10.6508 21.1931C9.19243 21.1931 7.82193 20.9161 6.53928 20.3623C5.25663 19.8085 4.1409 19.0575 3.19209 18.1094C2.24328 17.1613 1.49232 16.0456 0.939196 14.7622C0.386076 13.4789 0.109164 12.1084 0.108461 10.6507C0.107758 9.19307 0.38467 7.82257 0.939196 6.53922C1.49372 5.25587 2.24469 4.14014 3.19209 3.19203C4.1395 2.24392 5.25523 1.49296 6.53928 0.939134C7.82334 0.38531 9.19384 0.108398 10.6508 0.108398C12.1077 0.108398 13.4782 0.38531 14.7623 0.939134C16.0464 1.49296 17.1621 2.24392 18.1095 3.19203C19.0569 4.14014 19.8082 5.25587 20.3634 6.53922C20.9187 7.82257 21.1952 9.19307 21.1931 10.6507C21.191 12.1084 20.9141 13.4789 20.3624 14.7622C19.8107 16.0456 19.0597 17.1613 18.1095 18.1094C17.1593 19.0575 16.0435 19.8088 14.7623 20.3634C13.4811 20.9179 12.1105 21.1945 10.6508 21.1931Z" fill="#4CC170"/>
</svg>
