<svg width="24.000000" height="24.000000" viewBox="0 0 24 24" fill="none" xmlns="http://www.w3.org/2000/svg" xmlns:xlink="http://www.w3.org/1999/xlink">
	<desc>
			Created with Pixso.
	</desc>
	<defs>
		<linearGradient x1="36.981613" y1="8.960297" x2="96.196266" y2="29.895279" id="paint_linear_5_300_0" gradientUnits="userSpaceOnUse">
			<stop stop-color="#935DF3"/>
			<stop offset="1.000000" stop-color="#55368D"/>
		</linearGradient>
	</defs>
	<path id="Vector" d="M13.73 3.51L15.49 7.03C15.73 7.52 16.37 7.99 16.91 8.08L20.1 8.61C22.14 8.95 22.62 10.43 21.15 11.89L18.67 14.37C18.25 14.79 18.02 15.6 18.15 16.18L18.86 19.25C19.42 21.68 18.12 22.62 15.98 21.35L12.99 19.58C12.45 19.26 11.56 19.26 11.01 19.58L8.02 21.35C5.88 22.62 4.58 21.67 5.14 19.25L5.84 16.18C5.97 15.6 5.75 14.79 5.33 14.37L2.84 11.89C1.39 10.43 1.85 8.95 3.9 8.61L7.09 8.08C7.62 7.99 8.26 7.52 8.5 7.03L10.26 3.51C11.22 1.6 12.78 1.6 13.73 3.51Z" fill="#F7CE46" fill-opacity="1.000000" fill-rule="nonzero"/>
	<path id="Vector" d="M13.73 3.51L15.49 7.03C15.73 7.52 16.37 7.99 16.91 8.08L20.1 8.61C22.14 8.95 22.62 10.43 21.15 11.89L18.67 14.37C18.25 14.79 18.02 15.6 18.15 16.18L18.86 19.25C19.42 21.68 18.12 22.62 15.98 21.35L12.99 19.58C12.45 19.26 11.56 19.26 11.01 19.58L8.02 21.35C5.88 22.62 4.58 21.67 5.14 19.25L5.84 16.18C5.97 15.6 5.75 14.79 5.33 14.37L2.84 11.89C1.39 10.43 1.85 8.95 3.9 8.61L7.09 8.08C7.62 7.99 8.26 7.52 8.5 7.03L10.26 3.51C11.22 1.6 12.78 1.6 13.73 3.51Z" fill="url(#paint_linear_5_300_0)" fill-opacity="1.000000" fill-rule="nonzero"/>
	<g opacity="0.000000">
		<path id="Vector" d="M0 0L24 0L24 24L0 24L0 0Z" fill="#F7CE46" fill-opacity="1.000000" fill-rule="evenodd"/>
	</g>
</svg>
