<svg width="46" height="38" viewBox="0 0 46 38" fill="none" xmlns="http://www.w3.org/2000/svg">
<path d="M20.8454 29.0188C20.8454 26.6722 20.232 24.7015 19.0054 23.1068C18.136 22.0082 16.9565 21.2864 15.4667 20.9415C14 20.6002 12.6134 20.5762 11.36 20.8668C10.9334 18.3335 11.6267 15.6508 13.3867 12.8082C15.1502 9.96727 17.424 7.83127 20.208 6.40016L15.992 0.333496C13.8587 1.3895 11.832 2.72816 9.96535 4.34683C8.07202 5.9655 6.39202 7.82683 4.89869 9.93083C3.40535 12.0348 2.28535 14.4108 1.56535 17.1042C0.845353 19.7975 0.645353 22.5442 0.989353 25.3708C1.43735 29.1042 2.64269 32.0908 4.60535 34.3042C6.56624 36.5459 9.00891 37.6668 11.9334 37.6668C14.5067 37.6668 16.6427 36.8935 18.3334 35.3255C20.0062 33.7895 20.8418 31.6846 20.84 29.0108L20.8454 29.0188ZM45.176 29.0188C45.176 26.6722 44.5627 24.7015 43.336 23.1068C42.4649 21.9868 41.2854 21.2606 39.7974 20.9282C38.304 20.5993 36.9351 20.5797 35.6907 20.8695C35.264 18.3628 35.9307 15.6695 37.696 12.8162C39.456 9.98949 41.728 7.85616 44.512 6.41616L40.3067 0.333496C38.1716 1.3895 36.1627 2.72727 34.28 4.34683C32.3696 5.98968 30.6728 7.86566 29.2294 9.93083C27.7467 12.0375 26.6427 14.4108 25.9227 17.1042C25.1913 19.7954 24.9947 22.6039 25.344 25.3708C25.7867 29.1042 26.9867 32.0908 28.944 34.3042C30.8996 36.5299 33.3378 37.6428 36.2587 37.6428C38.8365 37.6464 40.9716 36.8668 42.664 35.3042C44.3369 33.7682 45.1742 31.6633 45.176 28.9895V29.0188Z" fill="#263041"/>
</svg>
