<svg width="26" height="26" viewBox="0 0 26 26" fill="none" xmlns="http://www.w3.org/2000/svg">
<g clip-path="url(#clip0_32_15)">
<path d="M0.554805 12.8444C0.554195 15.0289 1.12945 17.1619 2.22327 19.042L0.450195 25.4656L7.07532 23.7419C8.90775 24.7317 10.9608 25.2504 13.0472 25.2505H13.0527C19.9401 25.2505 25.5467 19.6895 25.5496 12.8542C25.551 9.542 24.2522 6.42745 21.8925 4.08422C19.5332 1.7412 16.3954 0.450166 13.0522 0.448654C6.1639 0.448654 0.55775 6.00943 0.554906 12.8444" fill="url(#paint0_linear_32_15)"/>
<path d="M0.108672 12.8404C0.107961 15.1035 0.703828 17.3128 1.83666 19.2602L0 25.914L6.86268 24.1286C8.75357 25.1516 10.8825 25.6909 13.0489 25.6917H13.0544C20.189 25.6917 25.997 19.9306 26 12.8507C26.0012 9.41946 24.6557 6.19294 22.2117 3.76577C19.7674 1.3389 16.5174 0.00141085 13.0544 0C5.91866 0 0.111516 5.76031 0.108672 12.8404ZM4.19565 18.9248L3.93941 18.5212C2.86223 16.8217 2.29369 14.8578 2.2945 12.8412C2.29673 6.95641 7.12339 2.16868 13.0585 2.16868C15.9327 2.16989 18.6339 3.28164 20.6655 5.29876C22.6971 7.31608 23.815 9.99771 23.8143 12.8498C23.8116 18.7346 18.9849 23.5229 13.0544 23.5229H13.0502C11.1192 23.5219 9.22533 23.0074 7.57372 22.035L7.18067 21.8037L3.10822 22.8632L4.19565 18.9248Z" fill="url(#paint1_linear_32_15)"/>
<path d="M9.81886 7.47228C9.57653 6.93787 9.32151 6.92709 9.09107 6.91772C8.90236 6.90965 8.68664 6.91026 8.47113 6.91026C8.25541 6.91026 7.90492 6.99078 7.60866 7.31175C7.3121 7.63302 6.47644 8.40939 6.47644 9.98844C6.47644 11.5675 7.63557 13.0936 7.79716 13.308C7.95895 13.5219 10.0349 16.866 13.3227 18.1525C16.0551 19.2217 16.6112 19.009 17.2042 18.9554C17.7973 18.902 19.118 18.1792 19.3875 17.4298C19.6571 16.6804 19.6571 16.0381 19.5763 15.9038C19.4954 15.7701 19.2797 15.6898 18.9562 15.5294C18.6328 15.3689 17.0424 14.5924 16.7459 14.4852C16.4494 14.3782 16.2338 14.3248 16.018 14.6462C15.8023 14.967 15.1829 15.6898 14.9941 15.9038C14.8055 16.1184 14.6167 16.1451 14.2933 15.9846C13.9696 15.8235 12.9279 15.485 11.692 14.3917C10.7304 13.541 10.0812 12.4904 9.89249 12.169C9.70379 11.8481 9.87228 11.6742 10.0345 11.5143C10.1798 11.3705 10.3581 11.1395 10.5199 10.9521C10.6812 10.7647 10.7351 10.631 10.8429 10.4169C10.9509 10.2027 10.8968 10.0152 10.8161 9.85471C10.7351 9.69417 10.1065 8.10686 9.81886 7.47228Z" fill="white"/>
</g>
<defs>
<linearGradient id="paint0_linear_32_15" x1="1255.42" y1="2502.14" x2="1255.42" y2="0.448654" gradientUnits="userSpaceOnUse">
<stop stop-color="#1FAF38"/>
<stop offset="1" stop-color="#60D669"/>
</linearGradient>
<linearGradient id="paint1_linear_32_15" x1="1300" y1="2591.4" x2="1300" y2="0" gradientUnits="userSpaceOnUse">
<stop stop-color="#F9F9F9"/>
<stop offset="1" stop-color="white"/>
</linearGradient>
<clipPath id="clip0_32_15">
<rect width="26" height="26" fill="white"/>
</clipPath>
</defs>
</svg>
