 <svg width="20.000000" height="20.000000" viewBox="0 0 20 20" fill="none"
                    xmlns="http://www.w3.org/2000/svg" xmlns:xlink="http://www.w3.org/1999/xlink">
                    <rect id="arrow 1" rx="0.000000" width="19.000000" height="19.000000"
                        transform="translate(0.500000 20.500000) rotate(-90.000000)" fill="#FFFFFF" fill-opacity="0" />
                    <g clip-path="url(#clip136_4351)">
                        <path id="Vector"
                            d="M7.73 14.78C7.59 14.64 7.51 14.44 7.51 14.25C7.51 14.05 7.59 13.86 7.73 13.72L11.45 10L7.73 6.28C7.66 6.21 7.6 6.12 7.56 6.03C7.52 5.94 7.5 5.84 7.5 5.74C7.49 5.64 7.51 5.54 7.55 5.45C7.59 5.35 7.64 5.27 7.71 5.2C7.79 5.13 7.87 5.07 7.96 5.03C8.06 4.99 8.16 4.98 8.26 4.98C8.36 4.98 8.46 5 8.55 5.04C8.64 5.08 8.73 5.14 8.79 5.22L13.04 9.47C13.18 9.61 13.26 9.8 13.26 10C13.26 10.19 13.18 10.39 13.04 10.53L8.79 14.78C8.65 14.92 8.46 15 8.26 15C8.06 15 7.87 14.92 7.73 14.78Z"
                            fill-opacity="1.000000" fill-rule="evenodd" />
                    </g>
                </svg>