<svg width="500.086182" height="910.557983" viewBox="0 0 500.086 910.558" fill="none" xmlns="http://www.w3.org/2000/svg" xmlns:xlink="http://www.w3.org/1999/xlink">
	<desc>
			Created with Pixso.
	</desc>
	<defs>
		<filter id="filter_144_1295_dd" x="0.000000" y="0.000000" width="500.086182" height="910.557983" filterUnits="userSpaceOnUse" color-interpolation-filters="sRGB">
			<feFlood flood-opacity="0" result="BackgroundImageFix"/>
			<feGaussianBlur in="BackgroundImage" stdDeviation="33.3333"/>
			<feComposite in2="SourceAlpha" operator="in" result="effect_backgroundBlur_1"/>
			<feBlend mode="normal" in="SourceGraphic" in2="effect_backgroundBlur_1" result="shape"/>
		</filter>
		<linearGradient x1="234.423126" y1="462.788849" x2="499.632294" y2="322.562927" id="paint_linear_144_1295_0" gradientUnits="userSpaceOnUse">
			<stop stop-color="#FFFFFF" stop-opacity="0.200000"/>
			<stop offset="1.000000" stop-color="#FFFFFF"/>
		</linearGradient>
	</defs>
	<g filter="url(#filter_144_1295_dd)">
		<path id="Vector 44" d="M492.52 317.77L25.54 3.33C11.74 -5.96 -5.32 9.37 2.46 24.08L466.38 901.49C474.16 916.2 496.43 910.74 496.52 894.1L499.58 331.13C499.61 325.78 496.96 320.76 492.52 317.77Z" fill="url(#paint_linear_144_1295_0)" fill-opacity="0.300000" fill-rule="nonzero"/>
		<path id="Vector 44" d="M492.52 317.77C496.96 320.76 499.61 325.78 499.58 331.13L496.52 894.1C496.43 910.74 474.16 916.2 466.38 901.49L2.46 24.08C-5.32 9.37 11.74 -5.96 25.54 3.33L492.52 317.77Z" stroke="#FFFFFF" stroke-opacity="1.000000" stroke-width="1.000000"/>
	</g>
</svg>
